<svg width="124" height="133" viewBox="0 0 124 133" fill="none" xmlns="http://www.w3.org/2000/svg">
<path d="M2 96C13.7818 94.0624 20.7273 91.6403 22.7273 90.6715C23.2727 92.4477 25.8909 96 32 96C40.7273 89.0245 47.6364 89.5412 50 90.6715" stroke="#845121"/>
<line y1="-0.5" x2="50.717" y2="-0.5" transform="matrix(0.103955 0.994582 -0.994944 0.100429 0 82.3551)" stroke="black"/>
<path d="M50.8767 82.3551L46.4941 132.88" stroke="black"/>
<line x1="5.0415" y1="132.5" x2="46.4941" y2="132.5" stroke="black"/>
<path d="M45.1357 45.4604C40.5006 48.1979 31.1263 56.6753 30.7094 68.6844M36.9692 70.4693C46.052 57.5589 50.9753 52.9348 52.3016 52.2365" stroke="black"/>
<path d="M44.8535 19.4138C47.135 21.3438 48.5946 23.7151 49.1591 25.9305C49.7246 28.1497 49.3742 30.079 48.2694 31.3949C47.1645 32.7108 45.3296 33.3842 43.0548 33.2008C40.7838 33.0177 38.2082 31.9756 35.9267 30.0456C33.6452 28.1157 32.1856 25.7444 31.6211 23.529C31.0555 21.3097 31.4059 19.3805 32.5108 18.0646C33.6156 16.7487 35.4506 16.0752 37.7254 16.2587C39.9963 16.4418 42.5719 17.4839 44.8535 19.4138Z" stroke="black" stroke-width="3"/>
<path d="M85.2942 12.5014C90.3859 20.0278 88.839 29.5264 82.5695 33.8729C76.3001 38.2195 66.9925 36.2462 61.9009 28.7198C56.8093 21.1934 58.3561 11.6948 64.6256 7.34827C70.8951 3.0017 80.2026 4.975 85.2942 12.5014Z" stroke="black" stroke-width="5"/>
<rect width="61.1153" height="47.2236" rx="23.6118" transform="matrix(0.67563 -0.739379 0.733061 0.677832 21.3795 45.2734)" fill="#845121"/>
</svg>
