<svg width="124" height="133" viewBox="0 0 124 133" fill="none" xmlns="http://www.w3.org/2000/svg">
<line y1="-0.5" x2="50.717" y2="-0.5" transform="matrix(0.103955 0.994582 -0.994944 0.100429 0 82.3551)" stroke="black"/>
<path d="M50.8767 82.3551L46.4941 132.88" stroke="black"/>
<line x1="5.0415" y1="132.5" x2="46.4941" y2="132.5" stroke="black"/>
<path d="M4.5 115C15.3 113 21.6667 110.5 23.5 109.5C24 111.333 26.4 115 32 115C40 107.8 46.3333 108.333 48.5 109.5" stroke="#845121"/>
<path d="M63.79 46.9085C58.5305 48.0556 46.9718 53.1682 42.8125 64.4418M48.1977 68.0984C60.8688 58.6846 66.9932 55.8363 68.4715 55.5889" stroke="black"/>
<path d="M71.6843 22.0854C73.2461 24.6331 73.8891 27.3423 73.7309 29.6231C73.5725 31.9077 72.6352 33.63 71.1736 34.5334C69.7121 35.4368 67.7585 35.5013 65.6557 34.6142C63.5566 33.7287 61.4373 31.932 59.8754 29.3842C58.3136 26.8365 57.6707 24.1273 57.8288 21.8465C57.9873 19.5619 58.9246 17.8396 60.3861 16.9362C61.8477 16.0328 63.8012 15.9683 65.904 16.8554C68.0032 17.7409 70.1225 19.5376 71.6843 22.0854Z" stroke="black" stroke-width="3"/>
<path d="M112.254 28.1942C114.731 36.9371 110.285 45.4725 102.97 47.6354C95.6538 49.7984 87.4334 45.0077 84.9569 36.2648C82.4803 27.5219 86.9258 18.9866 94.2416 16.8236C101.557 14.6607 109.778 19.4513 112.254 28.1942Z" stroke="black" stroke-width="5"/>
<rect width="61.1153" height="47.2236" rx="23.6118" transform="matrix(0.8733 -0.490411 0.483722 0.873412 41.2889 39.2863)" fill="#845121"/>
<path d="M30.4339 90.582C31.3076 91.2578 32.5637 91.0973 33.2395 90.2236C33.9153 89.3499 33.7549 88.0938 32.8812 87.418L30.4339 90.582ZM47.5586 59.6135C38.3647 69.1719 33.4188 75.9805 31.0093 80.6799C29.8084 83.0221 29.1781 84.9539 29.033 86.5131C28.8932 88.0145 29.185 89.6161 30.4339 90.582L32.8812 87.418C33.2135 87.6751 32.9308 87.7969 33.0158 86.8837C33.0954 86.0284 33.489 84.6108 34.5687 82.5049C36.7205 78.3081 41.3623 71.8255 50.4414 62.3865L47.5586 59.6135Z" fill="#845121"/>
</svg>
