<svg width="124" height="133" viewBox="0 0 124 133" fill="none" xmlns="http://www.w3.org/2000/svg">
<line y1="-0.5" x2="50.717" y2="-0.5" transform="matrix(0.103955 0.994582 -0.994944 0.100429 0 82.3551)" stroke="black"/>
<path d="M50.8767 82.3551L46.4941 132.88" stroke="black"/>
<line x1="5.0415" y1="132.5" x2="46.4941" y2="132.5" stroke="black"/>
<path d="M63.2719 39.9829C58.0987 38.4944 45.4986 37.5037 36.4839 45.4491M39.4862 51.2247C55.1081 48.9587 61.8504 49.3609 63.2689 49.8453" stroke="black"/>
<path d="M82.0087 21.8877C82.1731 24.8715 81.4521 27.561 80.2297 29.493C79.0052 31.4283 77.3623 32.4987 75.6471 32.5995C73.9318 32.7003 72.182 31.8293 70.7529 30.0499C69.3262 28.2736 68.3145 25.6859 68.1502 22.7021C67.9858 19.7183 68.7067 17.0288 69.9292 15.0968C71.1537 13.1615 72.7966 12.0911 74.5118 11.9903C76.2271 11.8895 77.9768 12.7606 79.406 14.5399C80.8327 16.3162 81.8444 18.9039 82.0087 21.8877Z" stroke="black" stroke-width="3"/>
<path d="M115.788 46.7384C113.716 56.0525 105.284 61.9113 97.1878 60.2072C89.0914 58.5032 83.9037 49.7777 85.9755 40.4637C88.0473 31.1496 96.4791 25.2908 104.576 26.9948C112.672 28.6989 117.86 37.4243 115.788 46.7384Z" stroke="black" stroke-width="3"/>
<rect width="61.1153" height="47.2236" rx="23.6118" transform="matrix(1.00144 -0.0167895 0.01085 0.998358 47.0908 22.5884)" fill="#845121"/>
</svg>
